# Blender v2.90.1 OBJ File: 'spiderSave.blend'
# www.blender.org
mtllib 0.mtl
o body_Cylinder.003
v -2.594073 -0.451042 3.184292
v -3.131088 -0.585501 4.411707
v -2.158967 -0.589055 4.627225
v -1.298892 -1.245783 3.854084
v -2.085349 -0.685838 1.474091
v -2.274024 -0.434480 0.269862
v -1.783987 -1.204910 0.041983
v -1.994151 -0.152057 -1.857936
v -1.922908 -0.966786 -1.986508
v -1.402425 2.245146 -1.663867
v -2.161508 0.577235 -1.569025
v -2.165593 0.358749 0.410461
v -1.406681 1.525768 0.209815
v -1.398530 2.244942 -3.494267
v -2.157893 0.380558 -3.263866
v -2.155890 0.355837 -4.487502
v -2.147679 -0.216405 -2.840755
v -1.241484 1.919230 -4.140329
v -1.605793 1.819756 -4.573450
v -2.572676 0.784474 -5.125962
v -1.834925 -0.803730 -5.306046
v -1.579028 -1.112334 -4.073883
v -4.344852 2.852963 -6.569314
v -2.930359 -0.399691 -6.444324
v -2.586020 6.071447 -5.377964
v -3.531780 7.118278 -7.326925
v -6.150734 3.421124 -8.646687
v -4.044157 -1.167138 -9.312827
v -5.598201 3.423210 -10.961102
v -3.701173 -1.730560 -11.157543
v -3.239309 6.494763 -10.054086
v -2.619470 6.040222 -12.302975
v -4.421646 2.835258 -13.062664
v -2.972164 -1.241771 -13.625678
v -3.923006 1.566228 -15.250098
v -2.661877 -1.108750 -15.694151
v -2.355990 4.414775 -14.674370
v -2.071625 2.887913 -16.653477
v -1.207595 0.411761 -17.973583
v -1.801363 -0.359371 -18.256685
v -3.383874 0.462028 -17.058573
v -2.327196 -0.718899 -17.154045
v -1.347513 -0.501154 -18.444429
v 0.449392 -1.746735 1.239099
v 0.447454 -1.550075 2.152266
v -1.441690 -1.125934 2.298630
v -1.500394 -1.157144 1.410560
v -1.462727 1.487103 1.579901
v 0.451376 2.158802 1.578995
v 0.453989 2.009665 0.203652
v -1.638550 1.717249 2.482733
v 0.449733 2.367062 2.419858
v 0.446329 -1.631402 2.687676
v -1.793068 1.831932 3.198772
v -1.691027 1.711787 4.045557
v 0.446420 2.147214 3.967786
v 0.448129 2.375724 3.205975
v -2.000488 0.729283 4.436572
v 0.444855 -1.675500 3.478344
v -1.160101 -0.852731 4.567898
v -1.491097 1.242561 4.723555
v 0.444711 1.840032 4.820679
v -1.873437 -0.309607 4.043278
v -0.869502 -1.072182 4.954703
v 0.443186 0.726585 5.469759
v -0.950454 -0.523948 5.136328
v -2.168978 0.880870 3.953103
v -2.193426 0.961893 3.217452
v -2.220467 0.735603 1.508137
v -2.216682 0.924003 2.465317
v 0.484578 5.860815 -13.774965
v 0.487112 4.056637 -15.736307
v 0.481337 7.687931 -11.445356
v 0.477225 7.965787 -9.263240
v 0.472662 8.843922 -6.653514
v 0.468262 7.486261 -4.951455
v 0.463882 3.575353 -4.094550
v 0.462959 2.700644 -3.927965
v 0.462127 2.760671 -3.502111
v 0.457950 2.708921 -1.528728
v -0.616761 2.710618 -16.447769
v 0.488814 1.084469 -17.088310
v -2.255901 -0.912396 -3.980684
v 0.489358 -0.796367 -17.970100
v 0.486320 -1.046707 -16.565695
v 0.483131 -1.483566 -15.152256
v 0.478928 -1.632762 -13.149931
v 0.474764 -1.733362 -11.148992
v 0.470436 -1.549886 -8.974131
v 0.465335 -0.689582 -6.200523
v 0.462782 -1.141377 -5.101246
v 0.460111 -1.486842 -3.909384
v -1.367272 -1.097385 -2.805000
v -1.370559 -1.329614 -1.277434
v 0.458101 -1.098609 -2.801262
v 0.454814 -1.330839 -1.273695
v 0.442250 -1.437967 4.827672
v 0.442557 -0.955761 5.717609
v -1.939984 -0.487443 2.602888
v -1.545806 -1.000347 -0.206991
v -1.255110 -1.492505 3.062508
v -1.567812 -0.932362 2.786566
v -1.445546 -1.175500 2.549519
v 0.488867 2.464680 -16.660221
v 3.486514 -0.748903 3.122751
v 3.045489 -0.902891 4.517307
v 2.187489 -1.637282 3.765603
v 2.984572 -0.689243 1.484468
v 2.489637 -1.546182 1.259448
v 2.687754 -1.592157 0.078591
v 2.835070 -1.325646 -1.883832
v 2.907732 -0.155350 -1.847899
v 2.318142 2.272453 -1.573735
v 2.313886 1.466733 0.239461
v 3.070245 0.158641 0.436739
v 3.074330 0.403349 -1.478850
v 3.077944 0.377049 -3.253141
v 2.322038 2.242447 -3.486646
v 3.065197 -0.219901 -2.830083
v 3.079948 0.155389 -4.303111
v 2.167199 1.916945 -4.133349
v 3.499903 0.634898 -4.919243
v 2.533145 1.816972 -4.564978
v 2.499242 -1.488210 -3.905207
v 2.760482 -1.142915 -5.096539
v 3.861023 -0.691860 -6.193570
v 5.280891 2.949248 -6.308719
v 3.522367 6.067346 -5.365458
v 7.095841 3.583172 -8.311623
v 4.477503 7.112904 -7.310523
v 4.985028 -1.552917 -8.964888
v 4.650707 -1.736165 -11.140448
v 6.552488 3.586242 -10.553567
v 4.194644 7.029588 -9.685483
v 5.383383 2.929299 -12.592075
v 3.583041 6.521316 -11.864291
v 3.930025 -1.635080 -13.142860
v 3.628139 -1.485675 -15.145812
v 4.891513 1.508640 -14.710923
v 3.326516 4.701149 -14.160197
v 3.047696 2.991416 -16.076567
v 4.357896 0.272634 -16.463213
v 2.778913 -0.645215 -17.629120
v 2.185185 0.219253 -17.357594
v 3.299828 -1.048592 -16.559940
v 2.325600 -0.803406 -17.812660
v 2.398806 -1.538279 1.401808
v 2.336632 -1.503238 2.260960
v 2.364445 1.423363 1.565538
v 2.536870 1.714445 2.491283
v 2.688612 1.828927 3.207945
v 2.583317 1.674710 3.952505
v 2.889747 0.573881 4.332161
v 2.046440 -0.854885 4.574465
v 2.379989 1.149441 4.607798
v 2.762650 -0.312717 4.052772
v 1.754008 -1.442262 4.828922
v 0.441595 0.862697 5.622460
v 1.834907 -0.525815 5.142031
v 3.060371 0.743432 3.864993
v 3.087864 0.834146 3.153196
v 3.121458 0.732014 1.519071
v 3.114007 0.920428 2.476231
v 1.593944 2.709131 -16.443239
v 3.176044 -1.265181 -3.812254
v 2.283474 -1.099834 -2.797530
v 2.280194 -1.332063 -1.269957
v 0.438950 -0.639382 5.878578
v 2.834677 -0.788796 2.557437
v 2.450864 -1.362731 -0.163321
v 2.146477 -1.913555 2.999411
v 2.461117 -1.286605 2.733660
v 2.339421 -1.558760 2.503769
vn -0.3982 -0.8766 -0.2702
vn -0.8953 0.4165 0.1579
vn -0.9101 0.4114 -0.0497
vn -0.9998 -0.0180 -0.0013
vn -0.8756 0.3110 -0.3696
vn -0.7601 0.3189 0.5661
vn -0.9352 -0.3365 0.1100
vn -0.7270 -0.4009 0.5574
vn -0.5644 0.0891 0.8207
vn -0.8123 0.2486 0.5277
vn -0.8385 -0.3485 0.4188
vn -0.8990 -0.3815 -0.2150
vn -0.7566 0.6151 -0.2218
vn -0.7026 0.6346 -0.3219
vn -0.8651 -0.3032 -0.3995
vn -0.9430 -0.3322 -0.0222
vn -0.7361 0.5174 -0.4364
vn -0.3580 0.3389 -0.8700
vn -0.7210 0.4947 -0.4852
vn -0.9051 -0.4250 -0.0103
vn -0.6657 -0.5553 -0.4985
vn -0.2671 -0.9422 0.2023
vn -0.2506 0.9624 -0.1048
vn -0.3225 0.9187 -0.2282
vn -0.2275 -0.9627 -0.1467
vn -0.2273 0.9329 0.2793
vn -0.6461 -0.3973 -0.6517
vn -0.1403 0.7943 0.5911
vn 0.0208 -0.3517 0.9359
vn -0.5083 -0.8550 -0.1032
vn -0.1950 0.4942 0.8472
vn -0.5207 0.0399 0.8528
vn -0.8085 0.4191 0.4132
vn -0.8944 0.4151 0.1667
vn -0.6910 0.7098 -0.1370
vn -0.8352 0.5061 -0.2155
vn -0.1582 0.7266 -0.6686
vn -0.2401 0.7637 -0.5993
vn -0.3434 0.9316 -0.1193
vn -0.3342 0.8931 -0.3011
vn -0.4099 0.7136 0.5681
vn -0.3097 0.1074 0.9448
vn -0.2039 0.1834 0.9617
vn -0.2652 0.9547 -0.1351
vn -0.2435 0.9696 0.0249
vn -0.2502 0.8980 0.3619
vn -0.2064 0.4733 -0.8564
vn 0.1726 0.3460 -0.9222
vn 0.1792 0.4636 -0.8677
vn 0.2250 0.5184 -0.8250
vn -0.0683 -0.9740 -0.2162
vn -0.0628 -0.9535 -0.2948
vn -0.1022 -0.9920 -0.0741
vn -0.0003 -0.9809 -0.1943
vn -0.1016 -0.9566 0.2733
vn -0.1023 -0.9502 0.2945
vn -0.1015 -0.9201 -0.3784
vn -0.1521 -0.9492 -0.2755
vn -0.0004 -0.9886 -0.1503
vn 0.2910 0.4062 -0.8662
vn 0.2890 0.4035 -0.8682
vn -0.1952 -0.8623 0.4673
vn -0.4500 -0.3400 0.8258
vn -0.9949 0.0934 0.0374
vn -0.2275 -0.3458 -0.9103
vn -0.2756 -0.9596 0.0573
vn -0.1961 -0.9255 0.3239
vn -0.0007 -0.9999 0.0119
vn -0.2500 -0.9667 -0.0544
vn -0.6862 -0.2026 -0.6986
vn -0.9308 -0.3579 0.0741
vn -0.0012 -0.9559 0.2938
vn -0.2985 -0.9415 -0.1565
vn -0.8871 -0.4586 0.0513
vn -0.2497 -0.9537 0.1674
vn -0.9166 -0.3972 -0.0457
vn -0.4143 -0.8997 -0.1377
vn -0.8260 0.0167 -0.5634
vn -0.8123 0.0440 -0.5816
vn -0.8081 0.5890 -0.0047
vn -0.2974 0.9547 -0.0111
vn -0.3299 0.1179 0.9366
vn -0.3450 0.1369 0.9286
vn -0.9954 -0.0942 -0.0174
vn 0.0963 -0.0147 0.9952
vn -0.7179 -0.0112 -0.6960
vn -0.1488 0.1923 -0.9700
vn -0.9792 0.1029 0.1749
vn -0.5881 -0.7808 0.2108
vn -0.1264 -0.8210 0.5567
vn -0.0125 -0.9548 0.2969
vn -0.0664 -0.7957 0.6021
vn -0.7902 -0.5826 0.1900
vn -0.9413 -0.2139 0.2610
vn -0.8102 -0.5725 -0.1256
vn -0.2236 -0.5283 -0.8191
vn -0.2240 -0.7358 0.6391
vn -0.2166 -0.9571 -0.1924
vn 0.5173 0.6456 0.5619
vn -0.5173 -0.5928 -0.6172
vn -0.5198 -0.6591 -0.5435
vn -0.6572 -0.1997 -0.7268
vn -0.9620 0.2724 0.0160
vn -0.9606 0.2709 0.0618
vn -0.0545 0.5012 -0.8636
vn -0.1168 0.2942 -0.9486
vn -0.8371 -0.2794 0.4703
vn 0.9105 0.3770 0.1697
vn 0.9270 0.3751 -0.0040
vn 0.9998 -0.0174 0.0056
vn 0.8775 0.3098 -0.3660
vn 0.7552 0.3371 0.5622
vn 0.8731 -0.3920 0.2900
vn 0.7952 -0.2933 0.5307
vn 0.5241 0.0382 0.8508
vn 0.7920 0.2830 0.5410
vn 0.7428 -0.3757 0.5542
vn 0.9116 -0.3465 -0.2214
vn 0.7820 0.6126 -0.1146
vn 0.7326 0.5881 -0.3428
vn 0.8708 -0.2655 -0.4138
vn 0.9534 -0.3012 -0.0193
vn 0.7543 0.4708 -0.4575
vn 0.3571 0.2980 -0.8853
vn 0.7361 0.4483 -0.5071
vn 0.9217 -0.3879 -0.0071
vn 0.6829 -0.5085 -0.5245
vn 0.0866 -0.9739 0.2099
vn 0.3589 0.9332 0.0168
vn 0.2915 0.8956 -0.3359
vn 0.0331 -0.9881 -0.1500
vn 0.2306 0.9458 0.2285
vn 0.6494 -0.4829 -0.5874
vn 0.1689 0.7428 0.6478
vn -0.0652 -0.2914 0.9544
vn 0.6449 -0.5507 -0.5300
vn 0.2972 0.6050 0.7387
vn 0.7776 -0.3731 0.5061
vn 0.7650 0.4632 0.4475
vn 0.8898 0.4472 0.0914
vn 0.6631 0.7354 -0.1396
vn 0.8491 0.4490 -0.2781
vn 0.2042 0.7206 -0.6626
vn 0.2080 0.7698 -0.6035
vn 0.2293 0.9656 -0.1225
vn 0.3366 0.8926 -0.2998
vn 0.4085 0.7130 0.5698
vn 0.2258 0.2083 0.9517
vn 0.2002 0.1831 0.9625
vn 0.2670 0.9543 -0.1340
vn 0.2290 0.9731 0.0260
vn 0.2210 0.9042 0.3655
vn 0.2101 0.4214 -0.8822
vn 0.1090 0.5305 -0.8406
vn 0.1917 0.2468 -0.9499
vn 0.0606 0.4031 -0.9131
vn -0.0003 -0.9814 -0.1919
vn -0.0000 -0.9554 -0.2953
vn -0.0005 -0.9972 -0.0743
vn -0.0006 -0.9987 -0.0502
vn -0.0008 -0.9965 0.0841
vn -0.0012 -0.9551 0.2962
vn 0.0002 -0.9249 -0.3801
vn -0.0001 -0.9605 -0.2784
vn -0.5313 0.4974 0.6858
vn 0.0726 0.4234 -0.9030
vn 0.0793 0.4143 -0.9067
vn -0.0032 -0.7962 0.6050
vn 0.4621 -0.3230 0.8259
vn 0.9965 0.0777 0.0298
vn 0.2273 -0.3043 -0.9251
vn 0.2463 -0.8986 0.3631
vn -0.0013 -0.9438 0.3306
vn 0.0311 -0.9980 -0.0556
vn 0.6483 -0.1415 -0.7481
vn 0.9482 -0.3102 0.0684
vn 0.9485 -0.3061 0.0811
vn 0.0453 -0.9929 -0.1099
vn 0.1183 -0.9797 -0.1619
vn 0.8818 -0.4716 0.0088
vn -0.0034 -0.9849 0.1734
vn 0.9312 -0.3617 -0.0442
vn -0.1534 -0.9769 -0.1488
vn 0.8515 -0.0368 -0.5231
vn 0.6647 0.2636 -0.6991
vn 0.8053 0.5834 0.1055
vn 0.2324 0.9516 -0.2012
vn 0.4432 0.1383 0.8857
vn 0.4519 0.1492 0.8795
vn 0.9954 -0.0960 0.0037
vn -0.1221 -0.0124 0.9924
vn -0.2654 -0.9571 -0.1162
vn -0.6503 -0.7555 -0.0797
vn 0.7093 -0.0108 -0.7048
vn -0.2145 -0.9151 0.3414
vn -0.1105 -0.6449 0.7562
vn 0.8163 -0.5395 0.2065
vn 0.9396 -0.2179 0.2641
vn 0.8379 -0.5299 -0.1308
vn 0.0938 -0.4281 -0.8989
vn 0.0973 -0.6673 0.7384
vn 0.0157 -0.9747 -0.2231
vn -0.4412 0.4149 0.7957
vn 0.6535 -0.1421 -0.7435
vn 0.9678 0.2424 0.0683
vn 0.7616 -0.1009 0.6401
vn 0.0587 0.5011 -0.8634
vn 0.1211 0.2941 -0.9481
vn 0.8601 -0.2313 0.4547
vn -0.8322 0.5513 0.0591
vn -0.9262 0.3770 -0.0020
vn -0.8620 0.5068 -0.0116
vn -0.6944 0.2994 0.6543
vn -0.8604 -0.4306 0.2726
vn -0.7961 -0.3266 0.5094
vn -0.5841 0.0189 0.8114
vn -0.6951 0.2521 0.6732
vn -0.7395 -0.4163 0.5290
vn -0.9370 -0.3422 -0.0697
vn -0.7539 0.6320 -0.1794
vn -0.6829 0.5084 -0.5246
vn -0.9051 -0.2773 -0.3223
vn -0.9028 -0.3989 -0.1611
vn -0.7372 0.4979 -0.4569
vn -0.3176 0.5326 -0.7846
vn -0.7213 0.4744 -0.5047
vn -0.7169 -0.6149 -0.3286
vn -0.4324 -0.7760 -0.4592
vn -0.2152 -0.9754 0.0485
vn -0.3311 0.9435 0.0131
vn -0.2923 0.9115 -0.2893
vn -0.1914 0.9683 0.1605
vn -0.2938 0.8995 0.3234
vn -0.7798 -0.3725 0.5031
vn -0.7338 0.4378 0.5194
vn -0.8678 0.4900 0.0828
vn -0.7692 0.5671 -0.2944
vn -0.7037 0.7104 -0.0087
vn -0.1329 0.7754 -0.6173
vn -0.2235 0.7922 -0.5678
vn -0.3875 0.8770 -0.2841
vn -0.3117 0.9185 -0.2434
vn -0.4031 0.7102 0.5771
vn -0.2294 0.2086 0.9507
vn -0.6460 0.6543 0.3931
vn -0.3131 0.8153 -0.4871
vn -0.2671 0.9637 -0.0007
vn -0.2349 0.9076 0.3479
vn -0.1121 -0.9782 -0.1746
vn -0.0557 -0.9614 -0.2695
vn -0.1045 -0.9914 -0.0794
vn -0.1056 -0.9931 -0.0502
vn -0.1026 -0.9503 0.2941
vn -0.0616 -0.9578 -0.2807
vn -0.1230 -0.9684 -0.2170
vn -0.2081 -0.9741 -0.0886
vn -0.8807 0.3998 -0.2541
vn -0.2303 0.9519 -0.2022
vn 0.8594 0.5070 0.0666
vn 0.9271 0.3749 -0.0037
vn 0.8799 0.4652 -0.0965
vn 0.6469 0.3218 0.6914
vn 0.9449 -0.3051 0.1188
vn 0.7284 -0.3610 0.5823
vn 0.4883 0.1413 0.8612
vn 0.6602 0.2937 0.6912
vn 0.8417 -0.3143 0.4390
vn 0.9392 -0.3227 -0.1172
vn 0.7871 0.5869 -0.1900
vn 0.6976 0.4608 -0.5486
vn 0.9075 -0.2480 -0.3391
vn 0.9170 -0.3629 -0.1653
vn 0.7534 0.4518 -0.4778
vn 0.3241 0.4789 -0.8159
vn 0.7344 0.4288 -0.5261
vn 0.7438 -0.5701 -0.3489
vn 0.4588 -0.7341 -0.5005
vn 0.0223 -0.9989 0.0424
vn 0.2806 0.9543 -0.1029
vn 0.3483 0.9101 -0.2247
vn 0.2091 0.9365 0.2814
vn 0.3495 0.8813 0.3181
vn 0.5480 0.0870 0.8319
vn 0.7782 0.3496 0.5217
vn 0.9126 0.3551 0.2026
vn 0.7638 0.5612 -0.3187
vn 0.6743 0.7385 -0.0016
vn 0.2085 0.7145 -0.6678
vn 0.2226 0.7517 -0.6208
vn 0.3010 0.9065 -0.2960
vn 0.2371 0.9695 -0.0622
vn 0.4017 0.7097 0.5788
vn 0.3060 0.1070 0.9460
vn 0.6453 0.6535 0.3957
vn 0.3162 0.8149 -0.4858
vn 0.2685 0.9632 -0.0146
vn 0.2506 0.8845 0.3936
vn 0.0113 -0.9844 -0.1755
vn -0.0006 -0.9996 -0.0276
vn 0.8940 0.3725 -0.2488
vn 0.2987 0.9543 -0.0099
usemtl Skin_1.003
s off
f 1//1 4//1 2//1
f 11//2 13//2 10//2
f 10//3 15//3 11//3
f 15//4 16//4 17//4
f 18//5 15//5 14//5
f 19//6 16//6 18//6
f 16//7 21//7 22//7
f 20//8 24//8 21//8
f 19//9 23//9 20//9
f 26//10 23//10 25//10
f 23//11 28//11 24//11
f 29//12 28//12 27//12
f 31//13 27//13 26//13
f 32//14 29//14 31//14
f 33//15 30//15 29//15
f 35//16 34//16 33//16
f 37//17 33//17 32//17
f 39//18 41//18 38//18
f 38//19 35//19 37//19
f 41//20 36//20 35//20
f 40//21 42//21 41//21
f 45//22 47//22 44//22
f 13//23 49//23 50//23
f 48//24 52//24 49//24
f 46//25 45//25 53//25
f 54//26 56//26 57//26
f 58//27 59//27 60//27
f 61//28 56//28 55//28
f 58//29 63//29 59//29
f 59//30 64//30 60//30
f 62//31 61//31 65//31
f 58//32 66//32 61//32
f 58//33 55//33 67//33
f 68//34 55//34 54//34
f 70//35 48//35 69//35
f 69//36 13//36 12//36
f 72//37 37//37 71//37
f 71//38 32//38 73//38
f 73//39 31//39 74//39
f 74//40 26//40 75//40
f 75//41 25//41 76//41
f 77//42 25//42 19//42
f 77//43 18//43 78//43
f 78//44 14//44 79//44
f 79//45 10//45 80//45
f 10//46 50//46 80//46
f 40//47 39//47 43//47
f 81//48 38//48 72//48
f 81//49 82//49 38//49
f 39//50 38//50 82//50
f 43//51 85//51 42//51
f 36//52 85//52 86//52
f 34//53 86//53 87//53
f 34//54 88//54 30//54
f 30//55 89//55 28//55
f 24//56 89//56 90//56
f 21//57 90//57 91//57
f 22//58 91//58 92//58
f 93//59 96//59 94//59
f 82//60 84//60 39//60
f 43//61 39//61 84//61
f 97//62 98//62 64//62
f 66//63 64//63 98//63
f 17//64 16//64 83//64
f 16//65 22//65 83//65
f 22//66 93//66 83//66
f 92//67 95//67 22//67
f 22//68 95//68 93//68
f 53//69 59//69 4//69
f 70//70 46//70 99//70
f 70//71 69//71 46//71
f 69//71 47//71 46//71
f 96//72 100//72 94//72
f 47//73 96//73 44//73
f 93//74 11//74 15//74
f 64//75 59//75 97//75
f 11//76 100//76 12//76
f 9//77 93//77 94//77
f 8//78 93//78 9//78
f 93//79 8//79 11//79
f 68//80 51//80 70//80
f 51//81 57//81 52//81
f 66//82 65//82 61//82
f 98//83 65//83 66//83
f 69//84 12//84 5//84
f 69//85 5//85 47//85
f 100//86 7//86 12//86
f 12//87 7//87 6//87
f 6//88 5//88 12//88
f 101//89 4//89 1//89
f 2//90 4//90 3//90
f 101//91 53//91 4//91
f 4//92 59//92 3//92
f 102//93 99//93 103//93
f 63//94 58//94 67//94
f 99//95 46//95 103//95
f 53//96 101//96 102//96
f 103//97 53//97 102//97
f 103//98 46//98 53//98
f 3//99 59//99 63//99
f 1//100 102//100 101//100
f 102//101 1//101 99//101
f 99//102 1//102 70//102
f 68//103 70//103 1//103
f 67//104 68//104 1//104
f 81//105 72//105 104//105
f 81//106 104//106 82//106
f 66//107 60//107 64//107
f 114//108 116//108 113//108
f 113//109 117//109 118//109
f 117//110 119//110 120//110
f 117//111 121//111 118//111
f 120//112 123//112 121//112
f 120//113 125//113 122//113
f 122//114 126//114 127//114
f 123//115 127//115 128//115
f 127//116 130//116 128//116
f 127//117 131//117 129//117
f 131//118 133//118 129//118
f 129//119 134//119 130//119
f 133//120 136//120 134//120
f 132//121 135//121 133//121
f 137//122 139//122 135//122
f 135//123 140//123 136//123
f 142//124 144//124 141//124
f 139//125 141//125 140//125
f 138//126 142//126 139//126
f 145//127 143//127 142//127
f 147//128 45//128 44//128
f 114//129 49//129 149//129
f 149//130 52//130 150//130
f 148//131 53//131 45//131
f 57//132 152//132 151//132
f 153//133 154//133 59//133
f 56//134 155//134 152//134
f 153//135 59//135 156//135
f 59//136 154//136 157//136
f 62//137 158//137 155//137
f 153//138 159//138 154//138
f 160//139 155//139 153//139
f 161//140 152//140 160//140
f 149//141 163//141 162//141
f 114//142 162//142 115//142
f 140//143 72//143 71//143
f 136//144 71//144 73//144
f 134//145 73//145 74//145
f 130//146 74//146 75//146
f 128//147 75//147 76//147
f 77//148 128//148 76//148
f 121//149 77//149 78//149
f 118//150 78//150 79//150
f 113//151 79//151 80//151
f 50//152 113//152 80//152
f 143//153 146//153 144//153
f 164//154 72//154 141//154
f 164//155 141//155 82//155
f 144//156 82//156 141//156
f 85//157 146//157 145//157
f 86//158 145//158 138//158
f 87//159 138//159 137//159
f 88//160 137//160 132//160
f 89//161 132//161 131//161
f 126//162 89//162 131//162
f 125//163 90//163 126//163
f 124//164 91//164 125//164
f 117//165 166//165 119//165
f 167//59 95//59 166//59
f 82//166 144//166 84//166
f 146//167 84//167 144//167
f 97//168 157//168 168//168
f 159//169 168//169 157//169
f 119//170 165//170 120//170
f 120//171 165//171 124//171
f 124//172 165//172 166//172
f 92//173 124//173 95//173
f 124//173 166//173 95//173
f 53//174 107//174 59//174
f 163//175 169//175 148//175
f 163//176 148//176 162//176
f 162//177 148//177 147//177
f 96//178 170//178 147//178
f 147//179 44//179 96//179
f 166//180 117//180 116//180
f 157//181 97//181 59//181
f 116//182 115//182 170//182
f 111//183 167//183 166//183
f 112//184 111//184 166//184
f 166//185 116//185 112//185
f 150//186 161//186 163//186
f 150//187 57//187 151//187
f 159//188 155//188 158//188
f 168//189 159//189 158//189
f 162//190 108//190 115//190
f 162//191 147//191 108//191
f 147//192 170//192 109//192
f 170//193 110//193 109//193
f 170//194 115//194 110//194
f 171//195 107//195 53//195
f 107//196 106//196 59//196
f 172//197 173//197 169//197
f 156//198 160//198 153//198
f 169//199 173//199 148//199
f 53//200 172//200 171//200
f 173//201 172//201 53//201
f 173//202 53//202 148//202
f 106//203 156//203 59//203
f 169//204 163//204 105//204
f 161//205 105//205 163//205
f 160//205 105//205 161//205
f 160//206 156//206 105//206
f 164//207 104//207 72//207
f 164//208 82//208 104//208
f 159//209 157//209 154//209
f 11//210 12//210 13//210
f 10//211 14//211 15//211
f 18//212 16//212 15//212
f 19//213 20//213 16//213
f 16//214 20//214 21//214
f 20//215 23//215 24//215
f 19//216 25//216 23//216
f 26//217 27//217 23//217
f 23//218 27//218 28//218
f 29//219 30//219 28//219
f 31//220 29//220 27//220
f 32//221 33//221 29//221
f 33//222 34//222 30//222
f 35//223 36//223 34//223
f 37//224 35//224 33//224
f 39//225 40//225 41//225
f 38//226 41//226 35//226
f 41//227 42//227 36//227
f 40//228 43//228 42//228
f 45//229 46//229 47//229
f 13//230 48//230 49//230
f 48//231 51//231 52//231
f 54//232 55//232 56//232
f 61//233 62//233 56//233
f 58//234 60//234 66//234
f 58//235 61//235 55//235
f 68//236 67//236 55//236
f 70//237 51//237 48//237
f 69//238 48//238 13//238
f 72//239 38//239 37//239
f 71//240 37//240 32//240
f 73//241 32//241 31//241
f 74//242 31//242 26//242
f 75//243 26//243 25//243
f 77//244 76//244 25//244
f 77//245 19//245 18//245
f 78//246 18//246 14//246
f 79//247 14//247 10//247
f 10//248 13//248 50//248
f 43//249 84//249 85//249
f 36//250 42//250 85//250
f 34//251 36//251 86//251
f 34//252 87//252 88//252
f 30//161 88//161 89//161
f 24//253 28//253 89//253
f 21//254 24//254 90//254
f 22//255 21//255 91//255
f 93//59 95//59 96//59
f 96//256 47//256 100//256
f 68//257 54//257 51//257
f 51//258 54//258 57//258
f 114//259 115//259 116//259
f 113//260 116//260 117//260
f 117//261 120//261 121//261
f 120//262 122//262 123//262
f 120//263 124//263 125//263
f 122//264 125//264 126//264
f 123//265 122//265 127//265
f 127//266 129//266 130//266
f 127//267 126//267 131//267
f 131//268 132//268 133//268
f 129//269 133//269 134//269
f 133//270 135//270 136//270
f 132//271 137//271 135//271
f 137//272 138//272 139//272
f 135//273 139//273 140//273
f 142//274 143//274 144//274
f 139//275 142//275 141//275
f 138//276 145//276 142//276
f 145//277 146//277 143//277
f 147//278 148//278 45//278
f 114//279 50//279 49//279
f 149//280 49//280 52//280
f 57//281 56//281 152//281
f 56//282 62//282 155//282
f 153//283 155//283 159//283
f 160//284 152//284 155//284
f 161//285 151//285 152//285
f 149//286 150//286 163//286
f 114//287 149//287 162//287
f 140//288 141//288 72//288
f 136//289 140//289 71//289
f 134//290 136//290 73//290
f 130//291 134//291 74//291
f 128//292 130//292 75//292
f 77//293 123//293 128//293
f 121//294 123//294 77//294
f 118//295 121//295 78//295
f 113//296 118//296 79//296
f 50//297 114//297 113//297
f 85//298 84//298 146//298
f 86//158 85//158 145//158
f 87//159 86//159 138//159
f 88//160 87//160 137//160
f 89//161 88//161 132//161
f 126//162 90//162 89//162
f 125//163 91//163 90//163
f 124//164 92//164 91//164
f 167//59 96//59 95//59
f 96//299 167//299 170//299
f 150//300 151//300 161//300
f 150//301 52//301 57//301
