# Blender v2.90.1 OBJ File: 'spiderSave.blend'
# www.blender.org
mtllib 1.mtl
o leg1c_Cylinder.004
v 0.538186 0.215566 -0.129286
v -0.305684 0.241224 -0.335506
v -0.751076 -0.626955 0.145288
v -1.082194 0.711587 1.726091
v -0.501876 1.170686 0.640680
v 0.341994 1.118634 0.031481
v -0.497155 -1.231866 0.652966
v -0.698926 -0.804953 1.588831
v 0.347704 0.668119 2.075523
v 0.678823 -0.670424 0.494728
v 0.198450 -1.253017 0.822958
v -0.349224 -5.856295 2.177977
v -0.821570 -5.846802 2.061928
v -0.003320 -1.089059 0.913956
v -0.670090 -13.443487 1.410877
v -0.722156 -13.486441 1.633118
v -0.973312 -5.840670 2.721859
v -0.500965 -6.716070 1.958214
v -0.507395 -13.446760 1.450855
v -0.559453 -13.489710 1.673101
vn -0.8863 0.2331 -0.4001
vn -0.9694 -0.2454 0.0048
vn 0.9779 0.2049 0.0424
vn 0.1831 -0.5465 -0.8172
vn 0.2104 0.9548 0.2099
vn 0.2179 -0.2990 -0.9290
vn 0.6552 -0.5033 0.5634
vn 0.1749 -0.5888 -0.7891
vn -0.2390 -0.1473 0.9598
vn -0.9746 -0.0001 -0.2241
vn 0.7156 0.1160 0.6888
vn -0.9772 0.0038 -0.2124
vn 0.5237 0.1826 0.8321
vn 0.0254 -0.9826 -0.1840
vn -0.7154 -0.0518 0.6968
vn 0.2393 0.0876 -0.9670
vn 0.8203 -0.0541 0.5694
vn -0.8954 0.2293 -0.3817
vn -0.9171 -0.3984 -0.0160
vn 0.9810 0.1882 0.0461
vn -0.0600 0.9305 0.3615
vn 0.2220 -0.2995 -0.9279
vn 0.4756 0.1002 0.8739
vn 0.4528 -0.5529 0.6995
vn -0.9736 0.0001 -0.2281
vn 0.8597 0.0187 0.5104
vn -0.9746 0.0027 -0.2241
vn -0.9733 0.1221 0.1943
vn 0.0255 -0.9826 -0.1839
vn 0.9743 -0.0179 0.2248
vn 0.2394 0.0876 -0.9670
vn -0.2392 -0.0388 0.9702
usemtl Skin_1.003
s off
f 3//1 5//1 2//1
f 3//2 8//2 4//2
f 9//3 1//3 6//3
f 1//4 3//4 2//4
f 5//5 9//5 6//5
f 11//6 13//6 7//6
f 14//7 10//7 9//7
f 10//8 7//8 3//8
f 8//9 9//9 4//9
f 13//10 16//10 17//10
f 17//11 14//11 8//11
f 13//12 8//12 7//12
f 14//13 12//13 11//13
f 19//14 16//14 15//14
f 18//15 19//15 12//15
f 19//16 13//16 12//16
f 16//17 18//17 17//17
f 3//18 4//18 5//18
f 3//19 7//19 8//19
f 9//20 10//20 1//20
f 1//4 10//4 3//4
f 5//21 4//21 9//21
f 11//22 12//22 13//22
f 14//23 11//23 10//23
f 10//8 11//8 7//8
f 8//24 14//24 9//24
f 13//25 15//25 16//25
f 17//26 18//26 14//26
f 13//27 17//27 8//27
f 14//28 18//28 12//28
f 19//29 20//29 16//29
f 18//30 20//30 19//30
f 19//31 15//31 13//31
f 16//32 20//32 18//32
