# Blender v2.90.1 OBJ File: 'spiderSave.blend'
# www.blender.org
mtllib 10.mtl
o leg4c_Cylinder.013
v -0.704341 -0.100706 2.278484
v 0.097266 -0.388155 3.272207
v 0.804828 0.176655 2.963255
v 0.620500 -0.866556 2.097422
v -0.714372 -0.809128 -0.262266
v 0.003219 -0.068929 1.293509
v -1.892644 -0.862051 1.377918
v -1.531627 -1.772159 1.137527
v -0.756522 -2.050105 2.098391
v -0.557771 -1.340717 3.032682
v -1.003255 -11.155466 0.099268
v -0.630218 -11.858721 0.346664
v -0.072351 -1.685925 1.858858
v -0.847459 -1.741434 0.185135
v -1.099069 -19.530186 -0.798006
v -1.222402 -17.926140 -1.751778
v -1.052806 -10.914233 -0.924482
v -1.425834 -10.967583 -0.408550
v -1.204692 -17.966667 -1.453442
v -1.328025 -17.941238 -1.605719
vn 0.8667 0.2189 -0.4483
vn -0.7594 -0.4302 0.4882
vn -0.3833 0.8901 -0.2467
vn -0.6929 0.3131 0.6495
vn 0.6606 -0.5452 0.5162
vn 0.4190 -0.2055 0.8844
vn 0.6154 -0.6501 0.4457
vn 0.7462 -0.5045 -0.4344
vn -0.7987 -0.1639 -0.5790
vn 0.9517 0.0132 -0.3066
vn 0.9066 0.0306 -0.4209
vn -0.8104 0.0881 -0.5793
vn -0.7889 -0.1107 0.6044
vn -0.9976 -0.0451 0.0531
vn -0.8115 0.0878 -0.5777
vn -0.7841 -0.1157 0.6097
vn -0.7126 -0.1358 0.6883
vn 0.8582 0.1792 -0.4811
vn -0.7594 -0.4302 0.4881
vn 0.6393 -0.5695 0.5167
vn -0.6479 -0.0771 0.7578
vn 0.5370 -0.7230 0.4347
vn 0.8662 -0.3112 -0.3908
vn 0.9827 -0.0329 -0.1823
vn 0.9479 -0.0046 -0.3186
vn -0.8115 0.0880 -0.5776
vn -0.7839 -0.1128 0.6106
vn -0.0411 -0.9904 -0.1321
vn -0.7812 -0.1167 0.6132
vn -0.9750 0.0267 0.2207
usemtl Skin_1.003
s off
f 4//1 6//1 3//1
f 7//2 9//2 10//2
f 6//3 7//3 1//3
f 1//4 10//4 2//4
f 2//5 4//5 3//5
f 11//6 13//6 9//6
f 10//7 13//7 4//7
f 13//8 5//8 4//8
f 14//9 7//9 5//9
f 12//10 16//10 17//10
f 13//11 17//11 14//11
f 14//12 18//12 8//12
f 18//13 9//13 8//13
f 19//14 16//14 15//14
f 17//15 20//15 18//15
f 20//16 11//16 18//16
f 19//17 12//17 11//17
f 4//18 5//18 6//18
f 7//19 8//19 9//19
f 6//3 5//3 7//3
f 1//4 7//4 10//4
f 2//20 10//20 4//20
f 11//21 12//21 13//21
f 10//22 9//22 13//22
f 13//23 14//23 5//23
f 14//9 8//9 7//9
f 12//24 15//24 16//24
f 13//25 12//25 17//25
f 14//26 17//26 18//26
f 18//27 11//27 9//27
f 19//28 20//28 16//28
f 17//15 16//15 20//15
f 20//29 19//29 11//29
f 19//30 15//30 12//30
