# Blender v2.90.1 OBJ File: 'spiderSave.blend'
# www.blender.org
mtllib 12.mtl
o leg4a_Cylinder.015
v -0.697757 1.390521 -0.390278
v -0.687543 0.793558 0.032833
v -1.301274 7.526073 -2.257043
v -0.795765 0.097566 -1.107096
v -1.679528 6.710756 -3.260098
v -1.693605 0.038570 -0.518093
v -2.756872 6.291296 -2.785583
v -1.445636 0.635397 0.159257
v -2.378616 7.500794 -1.571036
v -0.970514 -0.315528 -0.100360
v -3.526600 14.935679 -6.863060
v -4.088665 14.194557 -7.550513
v -0.860767 0.274495 0.286664
v -3.291006 15.577361 -8.259714
v -2.766490 16.405529 -7.543877
v 0.092864 -0.087423 0.068588
vn 0.9425 -0.0274 -0.3331
vn -0.2697 -0.3305 -0.9045
vn -0.9409 -0.0432 0.3360
vn 0.5037 0.3190 0.8028
vn -0.2049 -0.8925 -0.4018
vn -0.9579 0.0115 0.2869
vn -0.6030 -0.4760 0.6402
vn 0.0630 0.4214 0.9047
vn 0.9407 -0.0199 -0.3386
vn 0.4333 0.5661 0.7013
vn -0.1608 -0.5293 -0.8330
vn 0.5292 0.4967 0.6880
vn 0.2479 -0.9106 -0.3306
vn -0.0158 -0.5463 0.8374
vn 0.3264 0.3251 0.8876
vn 0.9858 0.0845 -0.1452
vn -0.4926 -0.3695 -0.7879
vn -0.9310 -0.0263 0.3640
vn 0.1067 0.2566 0.9606
vn -0.8548 0.2068 0.4760
vn -0.4392 -0.4342 0.7865
vn 0.8688 -0.1395 -0.4751
vn -0.1665 0.4840 0.8591
vn 0.0588 -0.4822 -0.8741
usemtl Skin_1.003
s off
f 2//1 5//1 3//1
f 4//2 7//2 5//2
f 7//3 8//3 9//3
f 9//4 2//4 3//4
f 6//5 4//5 10//5
f 9//6 12//6 7//6
f 10//7 8//7 6//7
f 8//8 13//8 2//8
f 14//9 3//9 5//9
f 3//10 11//10 9//10
f 12//11 5//11 7//11
f 1//12 2//12 16//12
f 4//13 16//13 10//13
f 10//14 16//14 13//14
f 2//15 13//15 16//15
f 2//16 4//16 5//16
f 4//17 6//17 7//17
f 7//18 6//18 8//18
f 9//19 8//19 2//19
f 9//20 11//20 12//20
f 10//21 13//21 8//21
f 14//22 15//22 3//22
f 3//23 15//23 11//23
f 12//24 14//24 5//24
