# Blender v2.90.1 OBJ File: 'spiderSave.blend'
# www.blender.org
mtllib 14.mtl
o leg5b_Cylinder.017
v 0.132768 0.483216 -0.449928
v 0.247156 -0.286067 -0.460499
v -0.792592 -0.673990 0.259641
v 0.699724 -0.724460 0.267935
v -0.829407 -0.733640 0.648648
v -0.906974 0.477644 -0.182421
v 0.531430 0.886791 0.140319
v -0.997701 0.878590 0.533745
v -0.335546 0.672018 1.939807
v 0.584975 1.220757 1.195117
v 0.598822 -0.535092 1.062797
v 1.923197 -1.485547 6.718724
v 1.814569 -3.186030 6.697236
v -0.321705 -0.540617 1.291980
v 0.540931 -3.225168 7.010526
v 2.329742 -4.987804 10.082154
v 1.485028 -5.012445 10.284802
v 0.649557 -1.529382 7.021914
v 2.523460 -4.083084 10.249249
v 1.678745 -4.083214 11.261825
vn -0.0325 -0.9875 -0.1545
vn -0.0815 0.9514 -0.2971
vn -0.1324 0.8576 -0.4969
vn 0.8616 0.0500 -0.5052
vn -0.9910 -0.1207 -0.0580
vn 0.9697 -0.0590 -0.2370
vn 0.9889 0.1111 0.0991
vn -0.8949 -0.2182 0.3894
vn 0.0653 -0.9688 0.2391
vn -0.0842 -0.8846 -0.4586
vn -0.9843 -0.0919 0.1510
vn -0.0741 -0.9070 -0.4146
vn -0.1460 0.8740 0.4636
vn 0.1095 0.8094 0.5769
vn 0.9590 -0.1624 -0.2324
vn -0.9612 0.0598 0.2693
vn -0.0264 -0.8637 -0.5034
vn -0.3135 0.9071 0.2809
vn -0.1325 0.8576 -0.4969
vn 0.7807 0.1245 -0.6124
vn -0.9877 -0.1110 -0.1105
vn 0.9743 0.0246 -0.2240
vn 0.9984 0.0120 -0.0545
vn -0.7791 -0.0367 0.6258
vn -0.0855 -0.8848 -0.4580
vn -0.9822 0.0617 0.1771
vn -0.0958 -0.9085 -0.4068
vn 0.0604 0.9202 0.3869
vn 0.4520 0.8084 0.3772
vn 0.9759 -0.0597 -0.2098
vn -0.9672 -0.0582 0.2471
usemtl Skin_1.003
s off
f 3//1 4//1 5//1
f 8//2 10//2 7//2
f 6//3 7//3 1//3
f 2//4 7//4 4//4
f 3//5 8//5 6//5
f 11//6 12//6 13//6
f 7//7 11//7 4//7
f 8//8 14//8 9//8
f 4//9 14//9 5//9
f 15//10 16//10 17//10
f 14//11 18//11 9//11
f 14//12 13//12 15//12
f 9//13 12//13 10//13
f 18//14 19//14 12//14
f 13//15 19//15 16//15
f 15//16 20//16 18//16
f 3//17 2//17 4//17
f 8//18 9//18 10//18
f 6//19 8//19 7//19
f 2//20 1//20 7//20
f 3//21 5//21 8//21
f 11//22 10//22 12//22
f 7//23 10//23 11//23
f 8//24 5//24 14//24
f 4//9 11//9 14//9
f 15//25 13//25 16//25
f 14//26 15//26 18//26
f 14//27 11//27 13//27
f 9//28 18//28 12//28
f 18//29 20//29 19//29
f 13//30 12//30 19//30
f 15//31 17//31 20//31
