# Blender v2.90.1 OBJ File: 'spiderSave.blend'
# www.blender.org
mtllib 15.mtl
o leg5a_Cylinder.018
v 2.574452 4.193227 3.699928
v 2.820627 3.035036 4.488874
v 1.377168 0.159046 0.768281
v 0.845227 0.310356 -0.421690
v 1.350115 3.034636 4.855470
v 0.404203 0.156368 0.972867
v 3.717636 7.393592 10.926479
v 3.832025 6.624309 10.915909
v -0.453797 -0.578023 0.221162
v 2.792277 6.236386 11.636048
v 1.149071 4.117805 4.139257
v 2.677894 7.388020 11.193987
v 0.121363 0.746541 0.508331
v 0.193391 0.270463 -0.987003
v -0.494809 -0.854296 -0.545029
v -0.180169 -0.227346 -0.810781
vn 0.9138 0.0235 -0.4055
vn 0.1424 -0.8091 0.5702
vn 0.9778 0.0746 -0.1956
vn 0.4322 -0.8500 -0.3013
vn -0.9737 -0.0315 0.2256
vn 0.5000 -0.8193 0.2805
vn -0.1646 0.9113 -0.3775
vn 0.6252 -0.7443 0.2349
vn 0.1309 -0.7797 0.6123
vn 0.5314 -0.5425 -0.6507
vn 0.5400 -0.6104 -0.5796
vn -0.3194 0.7378 -0.5946
vn -0.2294 0.7547 -0.6147
vn -0.9221 -0.1674 0.3488
vn -0.9624 0.0009 0.2716
vn 0.9399 -0.0318 -0.3400
vn 0.1224 -0.8113 0.5716
vn 0.9650 0.1465 -0.2175
vn -0.9766 -0.0146 0.2146
vn 0.1174 -0.8748 0.4701
vn -0.1075 0.9107 -0.3989
usemtl Skin_1.003
s off
f 1//1 3//1 4//1
f 5//2 3//2 2//2
f 1//3 8//3 2//3
f 4//4 3//4 9//4
f 5//5 12//5 11//5
f 5//6 8//6 10//6
f 11//7 7//7 1//7
f 15//8 4//8 9//8
f 3//9 6//9 9//9
f 4//10 15//10 16//10
f 16//11 14//11 4//11
f 11//12 4//12 13//12
f 1//13 4//13 11//13
f 5//14 13//14 6//14
f 11//15 13//15 5//15
f 1//16 2//16 3//16
f 5//17 6//17 3//17
f 1//18 7//18 8//18
f 5//19 10//19 12//19
f 5//20 2//20 8//20
f 11//21 12//21 7//21
