# Blender v2.90.1 OBJ File: 'spiderSave.blend'
# www.blender.org
mtllib 19.mtl
o leg7c_Cylinder.022
v 0.642504 0.219592 0.764148
v 0.430521 0.204801 0.263267
v -0.093287 -0.002967 1.082088
v -0.004417 -0.991841 1.234754
v 1.152573 -0.847589 0.740853
v -0.305271 -0.017756 0.581202
v -0.332062 -1.014705 0.460592
v 0.824932 -0.870454 -0.033315
v 0.849161 -1.537420 0.087143
v -0.026340 -1.646571 0.460886
v 1.097090 -1.520115 0.672962
v 0.221592 -1.629273 1.046699
v 0.474558 -8.607874 0.440826
v 1.178209 -9.525634 0.346843
v 0.220530 -8.604396 -0.043400
v 0.924187 -8.561277 -0.437156
v 0.923143 -14.532573 -0.251693
v 0.763744 -14.542341 -0.162494
v 0.821295 -14.543124 -0.052799
v 0.980692 -16.210548 0.163870
vn 0.3711 0.1574 0.9152
vn -0.3674 -0.1782 -0.9128
vn 0.8365 0.4078 -0.3661
vn -0.4241 0.1200 -0.8976
vn -0.9204 -0.0225 0.3902
vn 0.0812 -0.0397 0.9959
vn -0.8376 -0.4051 0.3665
vn 0.4027 -0.1248 0.9068
vn 0.9207 -0.0367 -0.3886
vn -0.4869 -0.0270 -0.8730
vn 0.9198 0.0390 -0.3904
vn -0.4899 0.0457 -0.8706
vn -0.9181 -0.0672 0.3906
vn -0.8778 -0.1433 -0.4571
vn -0.8822 -0.0900 0.4622
vn -0.7826 0.0061 0.6225
vn 0.9476 -0.0101 -0.3194
vn 0.3460 0.1734 0.9221
vn -0.3675 -0.1782 -0.9128
vn -0.4014 0.1038 -0.9100
vn 0.3986 -0.0650 0.9148
vn 0.9585 0.0213 -0.2844
vn -0.3985 0.0640 -0.9149
vn -0.8839 -0.0649 0.4632
vn 0.0442 -0.9986 -0.0304
vn 0.0271 -0.0813 0.9963
vn 0.9739 -0.0226 -0.2261
usemtl Skin_1.003
s off
f 1//1 4//1 5//1
f 8//2 10//2 7//2
f 2//3 5//3 8//3
f 2//4 7//4 6//4
f 6//5 4//5 3//5
f 11//6 13//6 14//6
f 7//7 12//7 4//7
f 5//8 12//8 11//8
f 8//9 11//9 9//9
f 15//10 17//10 18//10
f 11//11 16//11 9//11
f 10//12 16//12 15//12
f 10//13 13//13 12//13
f 19//14 17//14 20//14
f 15//15 19//15 13//15
f 14//16 19//16 20//16
f 14//17 17//17 16//17
f 1//18 3//18 4//18
f 8//19 9//19 10//19
f 2//3 1//3 5//3
f 2//20 8//20 7//20
f 6//5 7//5 4//5
f 11//21 12//21 13//21
f 7//7 10//7 12//7
f 5//8 4//8 12//8
f 8//9 5//9 11//9
f 15//10 16//10 17//10
f 11//22 14//22 16//22
f 10//23 9//23 16//23
f 10//24 15//24 13//24
f 19//25 18//25 17//25
f 15//15 18//15 19//15
f 14//26 13//26 19//26
f 14//27 20//27 17//27
