# Blender v2.90.1 OBJ File: 'spiderSave.blend'
# www.blender.org
mtllib 2.mtl
o leg1b_Cylinder.005
v -0.765856 -0.372327 0.399379
v -0.647991 0.779161 -0.042191
v 0.272811 0.003248 0.210700
v 0.305555 -0.773232 1.550082
v -1.221992 -0.763208 1.150189
v 0.390677 0.772339 0.229713
v -1.048382 1.183210 0.546366
v -1.108434 0.973439 2.108788
v -0.188863 0.967402 2.349509
v 0.479165 1.173178 0.946257
v -1.124090 -0.594239 1.971993
v -2.363616 -2.888056 7.097789
v -2.472891 -1.441257 7.810952
v -0.204518 -0.244420 1.702367
v -1.091287 -2.928713 7.416465
v -2.051032 -4.714850 10.686709
v -2.894902 -4.689192 10.480489
v -1.200569 -1.231870 7.428275
v -3.091094 -3.759730 11.456676
v -2.247224 -3.811782 10.847476
v -10.786407 -4.675385 -2.728499
vn 0.2150 -0.8426 -0.4937
vn -0.0280 0.9909 0.1320
vn 0.1356 0.8574 -0.4964
vn -0.8547 -0.1073 -0.5078
vn 0.9879 -0.1505 -0.0378
vn -0.9748 0.0290 -0.2210
vn -0.9964 0.0803 -0.0275
vn 0.4816 0.2202 0.8483
vn -0.2270 -0.4653 0.8555
vn 0.0863 -0.8849 -0.4576
vn 0.9834 -0.0953 0.1546
vn 0.2274 -0.8945 -0.3849
vn -0.0934 0.9203 0.3799
vn 0.0542 0.7890 0.6119
vn -0.9880 0.0015 -0.1544
vn 0.9414 0.0583 0.3322
vn 0.1014 -0.9063 -0.4102
vn -0.8271 -0.0979 -0.5535
vn 0.9889 -0.1167 -0.0918
vn -0.9748 0.0349 -0.2201
vn -0.9930 -0.0004 0.1184
vn 0.8927 -0.2212 0.3926
vn 0.3879 -0.9109 0.1411
vn 0.0851 -0.8847 -0.4583
vn 0.9815 0.0619 0.1814
vn 0.0693 -0.9167 -0.3935
vn -0.0370 0.9234 0.3822
vn 0.4311 0.7265 0.5351
vn -0.9836 -0.0195 -0.1792
vn 0.9270 0.1394 0.3482
usemtl Skin_1.003
s off
f 4//1 1//1 3//1
f 8//2 10//2 7//2
f 7//3 6//3 2//3
f 1//4 7//4 2//4
f 10//5 3//5 6//5
f 11//6 13//6 8//6
f 5//7 8//7 7//7
f 10//8 14//8 4//8
f 14//9 5//9 4//9
f 15//10 17//10 12//10
f 18//11 14//11 9//11
f 15//12 11//12 14//12
f 8//13 18//13 9//13
f 13//14 20//14 18//14
f 17//15 13//15 12//15
f 20//16 15//16 18//16
f 4//17 5//17 1//17
f 8//2 9//2 10//2
f 7//3 10//3 6//3
f 1//18 5//18 7//18
f 10//19 4//19 3//19
f 11//20 12//20 13//20
f 5//21 11//21 8//21
f 10//22 9//22 14//22
f 14//23 11//23 5//23
f 15//24 16//24 17//24
f 18//25 15//25 14//25
f 15//26 12//26 11//26
f 8//27 13//27 18//27
f 13//28 19//28 20//28
f 17//29 19//29 13//29
f 20//30 16//30 15//30
