# Blender v2.90.1 OBJ File: 'spiderSave.blend'
# www.blender.org
mtllib 7.mtl
o leg3c_Cylinder.010
v -0.902737 -0.235700 -0.584037
v -1.116743 -0.222238 -0.067353
v -1.628145 -1.174460 -0.093585
v -0.473379 -1.304639 0.421684
v -0.382557 -0.421831 0.264305
v -0.168552 -0.374527 0.042274
v -0.142601 -1.371508 -0.078229
v -0.449173 -2.002968 -0.079186
v -1.322989 -1.790729 -0.767816
v -1.297365 -1.195265 -0.892184
v -1.573284 -1.774986 -0.163509
v -1.663815 -8.922584 -0.500873
v -0.961792 -8.966545 -0.104134
v -0.699476 -1.873494 0.226402
v -0.705847 -9.926088 -0.281814
v -1.257513 -16.575922 -0.399302
v -1.416546 -14.890707 -0.798568
v -1.407869 -8.919416 -0.984018
v -1.315495 -14.901380 -0.599249
v -1.474525 -14.891426 -0.689125
vn -0.3579 0.1994 0.9122
vn 0.5453 -0.1938 -0.8155
vn -0.8206 0.4504 -0.3516
vn 0.6569 0.1073 -0.7463
vn 0.7253 -0.0640 0.6855
vn -0.4108 -0.0378 0.9110
vn 0.7089 -0.4641 0.5311
vn -0.4167 -0.1426 0.8978
vn -0.9235 -0.0399 -0.3815
vn 0.6900 -0.0235 -0.7234
vn -0.9232 0.0298 -0.3832
vn 0.6213 0.0164 -0.7834
vn 0.7601 -0.0583 0.6472
vn -0.8912 0.0232 0.4531
vn 0.2963 -0.0969 0.9502
vn -0.4936 -0.0430 0.8686
vn -0.8836 -0.0133 -0.4681
vn -0.3836 0.1811 0.9055
vn 0.5552 -0.2684 -0.7872
vn 0.5784 0.0240 -0.8154
vn 0.8347 0.0123 0.5506
vn -0.4929 -0.0223 0.8698
vn 0.6610 -0.3219 0.6778
vn -0.9235 -0.0400 -0.3815
vn 0.8192 -0.0579 -0.5706
vn -0.8835 0.0247 -0.4679
vn 0.7039 -0.0046 -0.7103
vn 0.4704 -0.0378 0.8816
vn -0.0452 -0.9985 -0.0305
vn -0.7580 0.0514 0.6502
vn -0.8835 -0.0133 -0.4682
usemtl Skin_1.003
s off
f 2//1 4//1 5//1
f 7//2 9//2 10//2
f 1//3 3//3 2//3
f 7//4 1//4 6//4
f 5//5 7//5 6//5
f 12//6 14//6 11//6
f 14//7 7//7 4//7
f 3//8 14//8 4//8
f 9//9 3//9 10//9
f 15//10 17//10 18//10
f 9//11 12//11 11//11
f 8//12 18//12 9//12
f 13//13 8//13 14//13
f 19//14 17//14 16//14
f 19//15 15//15 13//15
f 20//16 13//16 12//16
f 18//17 20//17 12//17
f 2//18 3//18 4//18
f 7//19 8//19 9//19
f 1//3 10//3 3//3
f 7//20 10//20 1//20
f 5//21 4//21 7//21
f 12//22 13//22 14//22
f 14//23 8//23 7//23
f 3//8 11//8 14//8
f 9//24 11//24 3//24
f 15//25 16//25 17//25
f 9//26 18//26 12//26
f 8//27 15//27 18//27
f 13//28 15//28 8//28
f 19//29 20//29 17//29
f 19//30 16//30 15//30
f 20//16 19//16 13//16
f 18//31 17//31 20//31
