# Blender v2.90.1 OBJ File: 'spiderSave.blend'
# www.blender.org
mtllib 13.mtl
o leg5c_Cylinder.016
v 1.252625 0.179989 -0.726967
v 0.407910 0.155349 -0.524319
v 1.446342 1.084709 -0.559872
v 2.021666 0.569732 0.492867
v 1.694800 -0.688715 -0.244297
v 0.601627 1.084579 0.452703
v 1.636661 -1.128295 0.358469
v 1.437961 -1.293316 0.262299
v 0.263469 -0.730471 0.099089
v 0.590332 0.607672 1.681274
v 0.741661 -1.313636 0.429348
v 1.749852 -5.908637 1.672607
v 1.277033 -5.917564 1.786661
v 0.940355 -0.886963 1.366064
v 1.898989 -6.768715 1.456011
v 1.640655 -15.331742 0.401381
v 1.589532 -13.505136 1.020897
v 1.426169 -5.911613 2.447237
v 1.477789 -13.551225 1.282644
v 1.426674 -13.508215 1.060188
vn 0.8243 0.1111 -0.5552
vn 0.6929 -0.6128 -0.3801
vn -0.9834 0.1720 0.0577
vn -0.1803 -0.5463 -0.8180
vn 0.3216 0.9080 0.2684
vn -0.2184 -0.2992 -0.9288
vn -0.8585 -0.2902 0.4228
vn -0.1723 -0.5886 -0.7898
vn 0.7763 -0.2227 0.5898
vn -0.6473 0.0787 -0.7582
vn 0.9309 0.1110 0.3480
vn -0.9751 -0.1225 -0.1851
vn -0.9743 -0.0468 0.2204
vn -0.0258 -0.9826 -0.1840
vn -0.9746 -0.0402 0.2204
vn -0.2352 0.0880 -0.9680
vn 0.9483 -0.0668 0.3103
vn 0.8551 -0.0888 -0.5108
vn 0.9744 -0.2159 -0.0635
vn -0.9836 0.1783 0.0254
vn 0.3111 0.8850 0.3464
vn -0.2144 -0.2987 -0.9300
vn -0.8094 -0.4503 0.3768
vn 0.6385 -0.0127 0.7695
vn -0.9638 0.0610 -0.2595
vn 0.8282 0.1933 0.5260
vn 0.5228 -0.1393 -0.8410
vn -0.9727 -0.0461 0.2273
vn -0.9213 0.1015 -0.3754
vn -0.9755 -0.0399 0.2164
vn 0.8770 -0.0666 0.4759
usemtl Skin_1.003
s off
f 1//1 4//1 5//1
f 5//2 7//2 8//2
f 6//3 9//3 10//3
f 2//4 5//4 9//4
f 6//5 4//5 3//5
f 11//6 12//6 13//6
f 9//7 14//7 10//7
f 9//8 8//8 11//8
f 4//9 14//9 7//9
f 15//10 17//10 12//10
f 7//11 18//11 15//11
f 8//12 15//12 12//12
f 14//13 13//13 18//13
f 17//14 19//14 20//14
f 13//15 19//15 18//15
f 12//16 20//16 13//16
f 15//17 19//17 16//17
f 1//18 3//18 4//18
f 5//19 4//19 7//19
f 6//20 2//20 9//20
f 2//4 1//4 5//4
f 6//21 10//21 4//21
f 11//22 8//22 12//22
f 9//23 11//23 14//23
f 9//8 5//8 8//8
f 4//24 10//24 14//24
f 15//25 16//25 17//25
f 7//26 14//26 18//26
f 8//27 7//27 15//27
f 14//28 11//28 13//28
f 17//29 16//29 19//29
f 13//30 20//30 19//30
f 12//16 17//16 20//16
f 15//31 18//31 19//31
