# Blender v2.90.1 OBJ File: 'spiderSave.blend'
# www.blender.org
mtllib 18.mtl
o leg6a_Cylinder.021
v 3.972063 4.195314 2.651639
v 3.072820 5.006939 2.464655
v 0.548162 0.252504 0.053571
v 0.569618 -0.641121 -0.081849
v 3.834306 5.110172 1.397360
v 0.741631 0.211818 -1.129781
v 4.568279 4.265129 1.721081
v 0.734985 -0.637821 -0.904198
v 0.053227 -0.604435 -0.171449
v 7.001725 9.394011 4.095558
v 7.360490 8.819380 4.352692
v 0.158077 -1.049034 -0.395762
v 0.251344 -0.650411 -1.352306
v 0.313982 -0.820925 -1.117982
v 6.764410 8.940880 5.278006
v 6.405639 9.502493 5.051739
v 0.633835 1.100387 -0.994158
v -0.037604 -0.596533 -0.029090
vn -0.4893 -0.1421 0.8605
vn -0.6864 0.5842 -0.4332
vn 0.5106 0.1171 -0.8518
vn 0.7399 -0.6567 0.1461
vn -0.1794 -0.1516 0.9720
vn 0.5380 0.1495 -0.8296
vn -0.9646 -0.1056 -0.2416
vn 0.6476 -0.7513 0.1272
vn 0.5168 -0.2235 -0.8264
vn -0.5778 -0.0407 0.8151
vn 0.6150 -0.6267 0.4785
vn -0.6176 0.6920 -0.3737
vn 0.4656 -0.8678 -0.1736
vn 0.8149 -0.3428 -0.4673
vn -0.1830 -0.4769 0.8597
vn 0.7011 -0.5302 0.4768
vn 0.1490 0.1668 -0.9747
vn 0.9829 0.0952 0.1574
vn -0.3986 -0.2376 0.8858
vn -0.7990 0.5822 -0.1506
vn 0.7064 -0.1868 -0.6827
vn 0.6505 -0.6650 0.3669
vn 0.6195 0.0359 -0.7842
vn -0.8628 -0.4897 -0.1257
vn -0.4064 -0.2476 0.8795
vn 0.6722 -0.6335 0.3832
vn -0.5814 0.6843 -0.4401
usemtl Skin_1.003
s off
f 1//1 3//1 4//1
f 5//2 3//2 2//2
f 7//3 6//3 5//3
f 7//4 4//4 8//4
f 4//5 3//5 9//5
f 5//6 11//6 7//6
f 9//7 14//7 12//7
f 8//8 4//8 12//8
f 6//9 8//9 14//9
f 2//10 15//10 16//10
f 1//11 11//11 15//11
f 2//12 10//12 5//12
f 14//13 8//13 12//13
f 13//14 6//14 14//14
f 12//15 4//15 9//15
f 18//16 9//16 3//16
f 17//17 6//17 13//17
f 6//18 17//18 3//18
f 1//19 2//19 3//19
f 5//20 6//20 3//20
f 7//21 8//21 6//21
f 7//22 1//22 4//22
f 5//23 10//23 11//23
f 9//24 13//24 14//24
f 2//25 1//25 15//25
f 1//26 7//26 11//26
f 2//27 16//27 10//27
