# Blender v2.90.1 OBJ File: 'spiderSave.blend'
# www.blender.org
mtllib 20.mtl
o leg7b_Cylinder.023
v 0.471828 -0.680883 0.762527
v -0.419298 -0.982595 0.942496
v -0.794054 -0.929476 0.069792
v 0.435377 0.608268 0.647718
v 0.060619 0.661393 -0.224987
v 0.190325 -0.636189 0.128159
v 1.217690 0.873338 0.513544
v 0.936186 -0.105398 -0.337921
v 1.136364 0.454621 -0.272936
v 1.275791 1.523119 0.256279
v 4.994101 -4.209869 -1.819159
v 5.311331 -4.234579 -1.088133
v 8.429749 -7.855206 -2.181792
v 8.217766 -7.869997 -2.682674
v 1.020504 0.837755 0.195325
v 0.881077 0.857520 -0.129366
v 7.693958 -8.077765 -1.863853
v 4.095987 -4.579414 -1.442005
v 7.481974 -8.092554 -2.364739
v 4.413212 -4.604124 -0.710979
vn -0.7887 0.4920 0.3686
vn 0.9932 -0.1069 -0.0458
vn 0.6881 0.6711 -0.2759
vn 0.1671 0.0921 0.9816
vn -0.3587 -0.2783 -0.8910
vn 0.7583 0.5838 -0.2901
vn -0.3068 0.9481 0.0841
vn -0.0207 0.1225 -0.9922
vn -0.2474 0.9549 0.1644
vn -0.3521 -0.0947 -0.9312
vn -0.6444 -0.7061 0.2936
vn 0.3830 0.0513 0.9223
vn 0.3815 0.0160 0.9242
vn -0.6343 -0.7313 0.2505
vn -0.4671 -0.1135 -0.8769
vn 0.6406 0.7248 -0.2535
vn 0.9349 -0.3442 0.0866
vn 0.6740 0.6727 -0.3051
vn 0.1381 0.0917 0.9862
vn 0.1308 -0.2481 -0.9598
vn -0.8070 0.3433 -0.4806
vn -0.8323 0.2668 0.4859
vn 0.0255 0.3499 -0.9365
vn -0.3674 -0.1055 -0.9241
vn -0.6594 -0.7045 0.2624
vn 0.3717 0.0432 0.9274
vn 0.3395 -0.0122 0.9405
vn -0.6427 -0.7296 0.2338
vn -0.3744 -0.0358 -0.9266
vn 0.3825 0.5414 -0.7487
usemtl Skin_1.003
s off
f 3//1 4//1 5//1
f 7//2 9//2 10//2
f 12//3 14//3 11//3
f 1//4 4//4 2//4
f 6//5 5//5 8//5
f 15//6 9//6 16//6
f 7//7 15//7 4//7
f 5//8 9//8 8//8
f 4//9 16//9 5//9
f 11//10 19//10 18//10
f 20//11 19//11 17//11
f 12//12 17//12 13//12
f 7//13 20//13 12//13
f 1//14 18//14 20//14
f 8//15 18//15 6//15
f 8//16 12//16 11//16
f 3//1 2//1 4//1
f 7//17 8//17 9//17
f 12//18 13//18 14//18
f 1//19 7//19 4//19
f 6//20 3//20 5//20
f 15//21 10//21 9//21
f 7//22 10//22 15//22
f 5//23 16//23 9//23
f 4//9 15//9 16//9
f 11//24 14//24 19//24
f 20//25 18//25 19//25
f 12//26 20//26 17//26
f 7//27 1//27 20//27
f 1//28 6//28 18//28
f 8//29 11//29 18//29
f 8//30 7//30 12//30
