# Blender v2.90.1 OBJ File: 'spiderSave.blend'
# www.blender.org
mtllib 21.mtl
o leg7a_Cylinder.024
v 6.012763 8.373175 -2.710847
v 6.772893 7.762770 -2.969965
v 1.348432 2.812868 -0.951530
v 1.177028 3.800748 -0.700065
v 7.139939 7.683619 -2.162314
v 1.597546 2.757170 -0.435172
v 6.379809 8.302505 -1.876253
v 1.324646 3.788890 -0.121880
v 0.657265 2.350264 -0.649015
v 0.729928 3.520560 -0.613083
v 11.084552 13.624935 -3.497321
v 10.193425 13.323223 -3.317351
v 0.972135 2.066534 0.002723
v 1.084494 3.700285 0.145979
v 9.818669 13.376343 -4.190056
v 10.803048 13.669630 -4.131689
v 0.896526 4.079259 -0.244034
v 0.102390 2.343847 -0.035141
v 0.273059 2.313179 1.071496
vn -0.3511 -0.0401 -0.9355
vn 0.5570 -0.7531 -0.3500
vn 0.4205 -0.1600 0.8931
vn -0.6215 0.7638 0.1743
vn -0.2989 0.1864 -0.9359
vn 0.3527 0.0007 0.9357
vn 0.4356 -0.8481 -0.3016
vn -0.3840 0.9225 -0.0391
vn 0.6491 -0.1106 0.7526
vn 0.1404 -0.2824 -0.9490
vn -0.6981 0.6311 0.3382
vn 0.7351 -0.5704 -0.3664
vn 0.9050 0.0111 -0.4253
vn -0.2457 0.6334 0.7338
vn 0.8208 -0.1057 0.5613
vn -0.2824 -0.9220 -0.2649
vn -0.3045 -0.9523 0.0206
vn -0.4578 0.1439 -0.8773
vn 0.5670 -0.7541 -0.3316
vn 0.3406 -0.0161 0.9401
vn -0.5783 0.7514 0.3179
vn -0.4307 0.0544 -0.9009
vn 0.1592 0.1146 0.9806
vn 0.4356 -0.7291 -0.5279
vn -0.5047 0.8508 0.1463
vn 0.7454 -0.0052 0.6666
vn -0.3378 -0.0212 -0.9410
vn -0.6915 0.6278 0.3573
vn 0.7252 -0.5706 -0.3855
usemtl Skin_1.003
s off
f 2//1 4//1 1//1
f 2//2 6//2 3//2
f 5//3 8//3 6//3
f 7//4 4//4 8//4
f 3//5 10//5 4//5
f 5//6 12//6 7//6
f 6//7 9//7 3//7
f 8//8 10//8 14//8
f 6//9 14//9 13//9
f 2//10 15//10 16//10
f 1//11 12//11 15//11
f 5//12 16//12 11//12
f 10//13 17//13 14//13
f 17//14 19//14 14//14
f 13//15 14//15 19//15
f 9//16 13//16 18//16
f 18//17 13//17 19//17
f 2//18 3//18 4//18
f 2//19 5//19 6//19
f 5//20 7//20 8//20
f 7//21 1//21 4//21
f 3//22 9//22 10//22
f 5//23 11//23 12//23
f 6//24 13//24 9//24
f 8//25 4//25 10//25
f 6//26 8//26 14//26
f 2//27 1//27 15//27
f 1//28 7//28 12//28
f 5//29 2//29 16//29
