# Blender v2.90.1 OBJ File: 'spiderSave.blend'
# www.blender.org
mtllib 8.mtl
o leg3b_Cylinder.011
v -0.727154 -0.393112 -0.145463
v -1.617643 -0.942430 -0.516830
v -0.348858 0.585747 -0.811062
v -1.199965 2.368687 -1.099813
v -1.578259 1.198775 -0.443847
v -1.333479 -0.044175 -0.960662
v -2.360390 0.446141 -0.777265
v -2.416569 1.026364 -1.043356
v -2.275822 1.045966 -1.367458
v -2.076231 0.485704 -1.431599
v -6.134047 -4.087860 -3.203768
v -9.359055 -7.351931 -4.109729
v -9.573061 -7.338469 -3.593045
v -6.454296 -4.109542 -2.449695
v -2.161240 1.428966 -0.898718
v -2.020502 1.448562 -1.222813
v -8.838875 -7.538062 -3.261387
v -5.237970 -3.982161 -2.546815
v -8.624870 -7.490758 -3.483417
v -5.558222 -4.440561 -2.056162
vn 0.4351 0.3852 0.8138
vn -0.8779 -0.2672 -0.3974
vn -0.6512 0.7144 -0.2560
vn -0.3717 -0.0248 0.9280
vn 0.3369 -0.3160 -0.8869
vn -0.7563 0.5849 -0.2931
vn -0.5956 0.2865 0.7505
vn -0.0969 0.2163 -0.9715
vn -0.6620 0.5179 0.5419
vn 0.5784 -0.3633 -0.7304
vn 0.7309 -0.6667 -0.1458
vn -0.3859 0.0504 0.9211
vn -0.3534 -0.0136 0.9354
vn 0.7001 -0.4819 -0.5270
vn 0.4717 -0.1156 -0.8741
vn -0.6739 0.6950 -0.2506
vn 0.4197 0.3369 0.8428
vn -0.6379 0.7163 -0.2829
vn 0.3376 0.0087 -0.9412
vn -0.5913 0.0869 0.8018
vn 0.2354 0.1929 -0.9525
vn 0.2479 0.9546 0.1654
vn 0.5673 -0.3541 -0.7435
vn 0.5574 -0.7382 0.3800
vn -0.3974 0.0596 0.9157
vn -0.3961 0.0190 0.9180
vn 0.6927 -0.6940 -0.1962
vn 0.5931 -0.2269 -0.7725
vn -0.6674 0.6965 -0.2634
usemtl Skin_1.003
s off
f 3//1 5//1 1//1
f 8//2 10//2 7//2
f 12//3 14//3 11//3
f 1//4 7//4 2//4
f 10//5 3//5 6//5
f 16//6 8//6 15//6
f 5//7 8//7 7//7
f 10//8 16//8 4//8
f 16//9 5//9 4//9
f 19//10 11//10 18//10
f 20//11 19//11 18//11
f 14//12 17//12 20//12
f 7//13 20//13 2//13
f 2//14 18//14 6//14
f 18//15 10//15 6//15
f 11//16 7//16 10//16
f 3//17 4//17 5//17
f 8//2 9//2 10//2
f 12//18 13//18 14//18
f 1//4 5//4 7//4
f 10//19 4//19 3//19
f 16//6 9//6 8//6
f 5//20 15//20 8//20
f 10//21 9//21 16//21
f 16//22 15//22 5//22
f 19//23 12//23 11//23
f 20//24 17//24 19//24
f 14//25 13//25 17//25
f 7//26 14//26 20//26
f 2//27 20//27 18//27
f 18//28 11//28 10//28
f 11//29 14//29 7//29
